<svg width="48" height="48" viewBox="0 0 24 24" fill="none" xmlns="http://www.w3.org/2000/svg">
<rect width="24" height="24" fill="none"/>
<path fill-rule="evenodd" clip-rule="evenodd" d="M17.9343 4.13342C16.7805 3.6719 15.9339 3.30227 15.2386 2.99872L15.2385 2.99868C14.9151 2.85751 14.6245 2.73064 14.351 2.61547C13.5503 2.27833 12.8125 2 12 2C11.1875 2 10.4497 2.27833 9.64901 2.61546C9.37543 2.73066 9.08478 2.85754 8.76139 2.99873C8.0661 3.30228 7.21946 3.6719 6.06568 4.13342C5.46146 4.37511 5.11375 5.01156 5.23681 5.65058C5.35988 6.2896 5.9191 6.75139 6.56986 6.75139H17.4301C18.0809 6.75139 18.6401 6.2896 18.7632 5.65058C18.8863 5.01156 18.5385 4.3751 17.9343 4.13342ZM3.85478 8.10891C3.10504 8.10891 2.49725 8.7167 2.49725 9.46645C2.49725 10.2162 3.10504 10.824 3.85478 10.824H20.1452C20.895 10.824 21.5028 10.2162 21.5028 9.46645C21.5028 8.7167 20.895 8.10891 20.1452 8.10891H3.85478ZM2.49725 12.1815C1.7475 12.1815 1.13971 12.7893 1.13971 13.5391C1.13971 14.2888 1.7475 14.8966 2.49725 14.8966H10.0796C10.3591 14.1057 11.1134 13.5391 12 13.5391C12.8866 13.5391 13.6409 14.1057 13.9204 14.8966H21.5028C22.2525 14.8966 22.8603 14.2888 22.8603 13.5391C22.8603 12.7893 22.2525 12.1815 21.5028 12.1815H2.49725ZM10.0795 16.2541C10.3591 17.045 11.1134 17.6117 12 17.6117C12.8866 17.6117 13.6409 17.045 13.9204 16.2541H20.1452C20.895 16.2541 21.5028 16.8619 21.5028 17.6117C21.5028 18.3614 20.895 18.9692 20.1452 18.9692H3.85478C3.10504 18.9692 2.49725 18.3614 2.49725 17.6117C2.49725 16.8619 3.10504 16.2541 3.85478 16.2541H10.0795Z" 
    fill="#EB9605"/>
</svg>
