<svg width="1440" height="1024" viewBox="0 0 1440 1024" fill="none" xmlns="http://www.w3.org/2000/svg">
<rect width="1440" height="1024" fill="#E5E5E5"/>
<g clip-path="url(#clip0_0_1)">
<rect width="1440" height="1024" fill="#EFDAC2"/>
<mask id="path-1-inside-1_0_1" fill="white">
<path d="M1138.32 136.961L1181.62 111.96L1181.62 61.9596L1138.32 36.9612L1095.02 61.9628L1095.02 111.963L1138.32 136.961Z"/>
<path d="M1181.62 211.96L1224.92 186.958L1224.92 136.958L1181.62 111.96L1138.32 136.961L1138.32 186.961L1181.62 211.96Z"/>
<path d="M1224.92 136.958L1268.22 111.956L1268.22 61.9565L1224.92 36.9581L1181.62 61.9596L1181.62 111.96L1224.92 136.958Z"/>
<path d="M1268.23 211.956L1311.53 186.955L1311.53 136.955L1268.22 111.956L1224.92 136.958L1224.92 186.958L1268.23 211.956Z"/>
<path d="M1224.93 286.958L1268.23 261.956L1268.23 211.956L1224.92 186.958L1181.62 211.96L1181.63 261.96L1224.93 286.958Z"/>
<path d="M1311.53 286.955L1354.83 261.953L1354.83 211.953L1311.53 186.955L1268.23 211.956L1268.23 261.956L1311.53 286.955Z"/>
<path d="M1311.53 136.955L1354.83 111.953L1354.82 61.9532L1311.52 36.9548L1268.22 61.9565L1268.22 111.956L1311.53 136.955Z"/>
<path d="M1354.83 211.953L1398.13 186.952L1398.13 136.952L1354.83 111.953L1311.53 136.955L1311.53 186.955L1354.83 211.953Z"/>
<path d="M1051.72 136.964L1095.02 111.963L1095.02 61.9628L1051.71 36.9644L1008.41 61.966L1008.42 111.966L1051.72 136.964Z"/>
<path d="M1095.02 211.963L1138.32 186.961L1138.32 136.961L1095.02 111.963L1051.72 136.964L1051.72 186.964L1095.02 211.963Z"/>
<path d="M965.116 136.968L1008.42 111.966L1008.41 61.966L965.112 36.9676L921.812 61.9691L921.814 111.969L965.116 136.968Z"/>
<path d="M878.513 136.971L921.814 111.969L921.812 61.9691L878.51 36.9708L835.21 61.9724L835.211 111.972L878.513 136.971Z"/>
<path d="M1268.23 361.957L1311.53 336.955L1311.53 286.955L1268.23 261.956L1224.93 286.958L1224.93 336.958L1268.23 361.957Z"/>
<path d="M1354.83 361.953L1398.14 336.952L1398.13 286.952L1354.83 261.953L1311.53 286.955L1311.53 336.955L1354.83 361.953Z"/>
<path d="M1398.13 286.952L1441.43 261.95L1441.43 211.95L1398.13 186.952L1354.83 211.953L1354.83 261.953L1398.13 286.952Z"/>
<path d="M1398.14 436.952L1441.44 411.95L1441.44 361.95L1398.14 336.952L1354.83 361.953L1354.84 406.18C1354.84 409.752 1356.74 413.054 1359.84 414.84L1398.14 436.952Z"/>
<path d="M1398.13 136.952L1441.43 111.95L1441.43 61.9499L1398.12 36.9517L1354.82 61.9532L1354.83 111.953L1398.13 136.952Z"/>
<path d="M1181.62 61.9596L1224.92 36.9581L1224.92 -13.0421L1186.62 -35.1539C1183.52 -36.9401 1179.71 -36.9399 1176.62 -35.1535L1138.31 -13.0388L1138.32 36.9612L1181.62 61.9596Z"/>
<path d="M1268.22 61.9565L1311.52 36.9548L1311.52 -13.0451L1273.22 -35.1569C1270.12 -36.9431 1266.31 -36.943 1263.22 -35.1565L1224.92 -13.0421L1224.92 36.9581L1268.22 61.9565Z"/>
<path d="M1354.82 61.9532L1398.12 36.9517L1398.12 -13.0484L1359.82 -35.1603C1356.73 -36.9465 1352.91 -36.9463 1349.82 -35.1599L1311.52 -13.0451L1311.52 36.9548L1354.82 61.9532Z"/>
<path d="M1095.02 61.9628L1138.32 36.9612L1138.31 -13.0388L1100.01 -35.1506C1096.92 -36.9369 1093.11 -36.9367 1090.01 -35.1503L1051.71 -13.0356L1051.71 36.9644L1095.02 61.9628Z"/>
<path d="M1008.41 61.966L1051.71 36.9644L1051.71 -13.0356L1013.41 -35.1475C1010.32 -36.9337 1006.5 -36.9336 1003.41 -35.1471L965.11 -13.0325L965.112 36.9676L1008.41 61.966Z"/>
<path d="M921.812 61.9691L965.112 36.9676L965.11 -13.0325L926.808 -35.1443C923.714 -36.9305 919.902 -36.9304 916.808 -35.1439L878.508 -13.0292L878.51 36.9708L921.812 61.9691Z"/>
<path d="M1441.43 61.9499L1479.73 39.8352C1482.82 38.0488 1484.73 34.7475 1484.73 31.1748L1484.73 -7.27816C1484.73 -10.8508 1482.82 -14.1521 1479.73 -15.9383L1446.42 -35.1635C1443.33 -36.9496 1439.52 -36.9495 1436.42 -35.1631L1398.12 -13.0484L1398.12 36.9517L1441.43 61.9499Z"/>
<path d="M1441.43 211.95L1479.73 189.835C1482.83 188.049 1484.73 184.747 1484.73 181.175L1484.73 142.722C1484.73 139.149 1482.83 135.848 1479.73 134.062L1441.43 111.95L1398.13 136.952L1398.13 186.952L1441.43 211.95Z"/>
<path d="M1441.44 361.95L1479.74 339.835C1482.83 338.049 1484.74 334.748 1484.74 331.175L1484.74 292.722C1484.74 289.149 1482.83 285.848 1479.74 284.062L1441.43 261.95L1398.13 286.952L1398.14 336.952L1441.44 361.95Z"/>
<path d="M835.21 61.9724L878.51 36.9708L878.508 -13.0292L840.206 -35.1411C837.112 -36.9273 833.3 -36.9271 830.206 -35.1407L791.905 -13.026L791.907 36.974L835.21 61.9724Z"/>
<path d="M748.607 61.9755L791.907 36.974L791.905 -13.026L753.603 -35.138C750.509 -36.9242 746.697 -36.924 743.603 -35.1376L705.303 -13.0229L705.305 36.9772L748.607 61.9755Z"/>
<path d="M921.817 211.969L965.118 186.968L965.116 136.968L921.814 111.969L878.513 136.971L878.515 181.197C878.515 184.77 880.421 188.071 883.515 189.857L921.817 211.969Z"/>
<path d="M662.004 61.9788L705.305 36.9772L705.303 -13.0229L667 -35.1347C663.906 -36.9209 660.094 -36.9207 657 -35.1343L618.7 -13.0197L618.702 36.9805L662.004 61.9788Z"/>
<path d="M705.308 136.977L748.609 111.976L748.607 61.9755L705.305 36.9772L662.004 61.9788L662.006 111.979L705.308 136.977Z"/>
<path d="M786.911 134.087C790.005 135.874 793.817 135.874 796.911 134.087L835.211 111.972L835.21 61.9724L791.907 36.974L748.607 61.9755L748.609 111.976L786.911 134.087Z"/>
<path d="M618.706 136.981L662.006 111.979L662.004 61.9788L618.702 36.9805L575.401 61.9821L575.403 111.982L618.706 136.981Z"/>
<path d="M575.401 61.9821L618.702 36.9805L618.7 -13.0197L580.398 -35.1313C577.304 -36.9175 573.492 -36.9174 570.398 -35.1309L532.097 -13.0162L532.1 36.9838L575.401 61.9821Z"/>
<path d="M488.799 61.9855L532.1 36.9838L532.097 -13.0162L493.796 -35.1279C490.702 -36.9142 486.89 -36.914 483.796 -35.1276L445.495 -13.0128L445.497 36.9872L488.799 61.9855Z"/>
<path d="M440.501 134.101C443.595 135.887 447.407 135.887 450.501 134.1L488.801 111.986L488.799 61.9855L445.497 36.9872L402.197 61.9889L402.199 111.989L440.501 134.101Z"/>
<path d="M402.197 61.9889L445.497 36.9872L445.495 -13.0128L407.193 -35.1247C404.099 -36.9109 400.287 -36.9107 397.193 -35.1243L358.893 -13.0096L358.895 36.9905L402.197 61.9889Z"/>
<path d="M657.009 209.092C660.103 210.879 663.915 210.878 667.009 209.092L700.31 189.864C703.404 188.078 705.31 184.776 705.31 181.204L705.308 136.977L662.006 111.979L618.706 136.981L618.707 181.207C618.707 184.78 620.613 188.081 623.708 189.867L657.009 209.092Z"/>
<path d="M960.121 284.081C963.216 285.867 967.028 285.867 970.121 284.081L1003.42 264.853C1006.52 263.067 1008.42 259.765 1008.42 256.193L1008.42 211.966L965.118 186.968L921.817 211.969L921.819 256.196C921.819 259.769 923.725 263.07 926.819 264.856L960.121 284.081Z"/>
<path d="M1008.42 211.966L1051.72 186.964L1051.72 136.964L1008.42 111.966L965.116 136.968L965.118 186.968L1008.42 211.966Z"/>
<path d="M1138.33 286.961L1181.63 261.96L1181.62 211.96L1138.32 186.961L1095.02 211.963L1095.02 256.189C1095.02 259.762 1096.93 263.063 1100.02 264.849L1138.33 286.961Z"/>
<path d="M1181.63 361.96L1224.93 336.958L1224.93 286.958L1181.63 261.96L1138.33 286.961L1138.33 331.188C1138.33 334.76 1140.23 338.062 1143.33 339.848L1181.63 361.96Z"/>
<path d="M1219.93 434.071C1223.03 435.858 1226.84 435.858 1229.93 434.071L1263.23 414.843C1266.33 413.057 1268.23 409.756 1268.23 406.183L1268.23 361.957L1224.93 336.958L1181.63 361.96L1181.63 406.186C1181.63 409.759 1183.54 413.06 1186.63 414.846L1219.93 434.071Z"/>
<path d="M1436.44 509.064C1439.54 510.85 1443.35 510.85 1446.44 509.063L1479.74 489.835C1482.84 488.049 1484.74 484.748 1484.74 481.175L1484.74 442.722C1484.74 439.149 1482.84 435.848 1479.74 434.062L1441.44 411.95L1398.14 436.952L1398.14 481.178C1398.14 484.751 1400.05 488.052 1403.14 489.838L1436.44 509.064Z"/>
<path d="M358.898 136.991L402.199 111.989L402.197 61.9889L358.895 36.9905L315.594 61.9922L315.596 111.992L358.898 136.991Z"/>
<path d="M315.594 61.9922L358.895 36.9905L358.893 -13.0096L320.591 -35.1213C317.497 -36.9075 313.685 -36.9073 310.591 -35.1209L272.29 -13.0062L272.292 36.9939L315.594 61.9922Z"/>
<path d="M228.991 61.9956L272.292 36.9939L272.29 -13.0062L233.988 -35.1179C230.894 -36.9041 227.082 -36.904 223.988 -35.1176L185.688 -13.0028L185.689 36.9972L228.991 61.9956Z"/>
<path d="M272.295 136.994L315.596 111.992L315.594 61.9922L272.292 36.9939L228.991 61.9956L228.993 106.222C228.993 109.795 230.899 113.096 233.993 114.882L272.295 136.994Z"/>
<path d="M527.103 134.097C530.197 135.884 534.009 135.883 537.103 134.097L575.403 111.982L575.401 61.9821L532.1 36.9838L488.799 61.9855L488.801 111.986L527.103 134.097Z"/>
<path d="M137.389 59.1123C140.483 60.8985 144.295 60.8984 147.389 59.1119L185.689 36.9972L185.688 -13.0028L147.385 -35.1146C144.291 -36.9009 140.479 -36.9007 137.385 -35.1143L104.085 -15.8865C100.991 -14.1 99.085 -10.7987 99.0851 -7.22604L99.0866 31.227C99.0867 34.7997 100.993 38.1009 104.087 39.8871L137.389 59.1123Z"/>
<path d="M310.599 209.106C313.693 210.892 317.505 210.892 320.599 209.105L353.9 189.878C356.994 188.091 358.9 184.79 358.9 181.217L358.898 136.991L315.596 111.992L272.295 136.994L272.297 181.221C272.297 184.793 274.203 188.094 277.297 189.881L310.599 209.106Z"/>
</mask>
<path d="M1138.32 136.961L1181.62 111.96L1181.62 61.9596L1138.32 36.9612L1095.02 61.9628L1095.02 111.963L1138.32 136.961Z" fill="#EB9605"/>
<path d="M1181.62 211.96L1224.92 186.958L1224.92 136.958L1181.62 111.96L1138.32 136.961L1138.32 186.961L1181.62 211.96Z" fill="#EB9605"/>
<path d="M1224.92 136.958L1268.22 111.956L1268.22 61.9565L1224.92 36.9581L1181.62 61.9596L1181.62 111.96L1224.92 136.958Z" fill="#EB9605"/>
<path d="M1268.23 211.956L1311.53 186.955L1311.53 136.955L1268.22 111.956L1224.92 136.958L1224.92 186.958L1268.23 211.956Z" fill="#EB9605"/>
<path d="M1224.93 286.958L1268.23 261.956L1268.23 211.956L1224.92 186.958L1181.62 211.96L1181.63 261.96L1224.93 286.958Z" fill="#EB9605"/>
<path d="M1311.53 286.955L1354.83 261.953L1354.83 211.953L1311.53 186.955L1268.23 211.956L1268.23 261.956L1311.53 286.955Z" fill="#EB9605"/>
<path d="M1311.53 136.955L1354.83 111.953L1354.82 61.9532L1311.52 36.9548L1268.22 61.9565L1268.22 111.956L1311.53 136.955Z" fill="#EB9605"/>
<path d="M1354.83 211.953L1398.13 186.952L1398.13 136.952L1354.83 111.953L1311.53 136.955L1311.53 186.955L1354.83 211.953Z" fill="#EB9605"/>
<path d="M1051.72 136.964L1095.02 111.963L1095.02 61.9628L1051.71 36.9644L1008.41 61.966L1008.42 111.966L1051.72 136.964Z" fill="#EB9605"/>
<path d="M1095.02 211.963L1138.32 186.961L1138.32 136.961L1095.02 111.963L1051.72 136.964L1051.72 186.964L1095.02 211.963Z" fill="#EB9605"/>
<path d="M965.116 136.968L1008.42 111.966L1008.41 61.966L965.112 36.9676L921.812 61.9691L921.814 111.969L965.116 136.968Z" fill="#EB9605"/>
<path d="M878.513 136.971L921.814 111.969L921.812 61.9691L878.51 36.9708L835.21 61.9724L835.211 111.972L878.513 136.971Z" fill="#EB9605"/>
<path d="M1268.23 361.957L1311.53 336.955L1311.53 286.955L1268.23 261.956L1224.93 286.958L1224.93 336.958L1268.23 361.957Z" fill="#EB9605"/>
<path d="M1354.83 361.953L1398.14 336.952L1398.13 286.952L1354.83 261.953L1311.53 286.955L1311.53 336.955L1354.83 361.953Z" fill="#EB9605"/>
<path d="M1398.13 286.952L1441.43 261.95L1441.43 211.95L1398.13 186.952L1354.83 211.953L1354.83 261.953L1398.13 286.952Z" fill="#EB9605"/>
<path d="M1398.14 436.952L1441.44 411.95L1441.44 361.95L1398.14 336.952L1354.83 361.953L1354.84 406.18C1354.84 409.752 1356.74 413.054 1359.84 414.84L1398.14 436.952Z" fill="#EB9605"/>
<path d="M1398.13 136.952L1441.43 111.95L1441.43 61.9499L1398.12 36.9517L1354.82 61.9532L1354.83 111.953L1398.13 136.952Z" fill="#EB9605"/>
<path d="M1181.62 61.9596L1224.92 36.9581L1224.92 -13.0421L1186.62 -35.1539C1183.52 -36.9401 1179.71 -36.9399 1176.62 -35.1535L1138.31 -13.0388L1138.32 36.9612L1181.62 61.9596Z" fill="#EB9605"/>
<path d="M1268.22 61.9565L1311.52 36.9548L1311.52 -13.0451L1273.22 -35.1569C1270.12 -36.9431 1266.31 -36.943 1263.22 -35.1565L1224.92 -13.0421L1224.92 36.9581L1268.22 61.9565Z" fill="#EB9605"/>
<path d="M1354.82 61.9532L1398.12 36.9517L1398.12 -13.0484L1359.82 -35.1603C1356.73 -36.9465 1352.91 -36.9463 1349.82 -35.1599L1311.52 -13.0451L1311.52 36.9548L1354.82 61.9532Z" fill="#EB9605"/>
<path d="M1095.02 61.9628L1138.32 36.9612L1138.31 -13.0388L1100.01 -35.1506C1096.92 -36.9369 1093.11 -36.9367 1090.01 -35.1503L1051.71 -13.0356L1051.71 36.9644L1095.02 61.9628Z" fill="#EB9605"/>
<path d="M1008.41 61.966L1051.71 36.9644L1051.71 -13.0356L1013.41 -35.1475C1010.32 -36.9337 1006.5 -36.9336 1003.41 -35.1471L965.11 -13.0325L965.112 36.9676L1008.41 61.966Z" fill="#EB9605"/>
<path d="M921.812 61.9691L965.112 36.9676L965.11 -13.0325L926.808 -35.1443C923.714 -36.9305 919.902 -36.9304 916.808 -35.1439L878.508 -13.0292L878.51 36.9708L921.812 61.9691Z" fill="#EB9605"/>
<path d="M1441.43 61.9499L1479.73 39.8352C1482.82 38.0488 1484.73 34.7475 1484.73 31.1748L1484.73 -7.27816C1484.73 -10.8508 1482.82 -14.1521 1479.73 -15.9383L1446.42 -35.1635C1443.33 -36.9496 1439.52 -36.9495 1436.42 -35.1631L1398.12 -13.0484L1398.12 36.9517L1441.43 61.9499Z" fill="#EB9605"/>
<path d="M1441.43 211.95L1479.73 189.835C1482.83 188.049 1484.73 184.747 1484.73 181.175L1484.73 142.722C1484.73 139.149 1482.83 135.848 1479.73 134.062L1441.43 111.95L1398.13 136.952L1398.13 186.952L1441.43 211.95Z" fill="#EB9605"/>
<path d="M1441.44 361.95L1479.74 339.835C1482.83 338.049 1484.74 334.748 1484.74 331.175L1484.74 292.722C1484.74 289.149 1482.83 285.848 1479.74 284.062L1441.43 261.95L1398.13 286.952L1398.14 336.952L1441.44 361.95Z" fill="#EB9605"/>
<path d="M835.21 61.9724L878.51 36.9708L878.508 -13.0292L840.206 -35.1411C837.112 -36.9273 833.3 -36.9271 830.206 -35.1407L791.905 -13.026L791.907 36.974L835.21 61.9724Z" fill="#EB9605"/>
<path d="M748.607 61.9755L791.907 36.974L791.905 -13.026L753.603 -35.138C750.509 -36.9242 746.697 -36.924 743.603 -35.1376L705.303 -13.0229L705.305 36.9772L748.607 61.9755Z" fill="#EB9605"/>
<path d="M921.817 211.969L965.118 186.968L965.116 136.968L921.814 111.969L878.513 136.971L878.515 181.197C878.515 184.77 880.421 188.071 883.515 189.857L921.817 211.969Z" fill="#EB9605"/>
<path d="M662.004 61.9788L705.305 36.9772L705.303 -13.0229L667 -35.1347C663.906 -36.9209 660.094 -36.9207 657 -35.1343L618.7 -13.0197L618.702 36.9805L662.004 61.9788Z" fill="#EB9605"/>
<path d="M705.308 136.977L748.609 111.976L748.607 61.9755L705.305 36.9772L662.004 61.9788L662.006 111.979L705.308 136.977Z" fill="#EB9605"/>
<path d="M786.911 134.087C790.005 135.874 793.817 135.874 796.911 134.087L835.211 111.972L835.21 61.9724L791.907 36.974L748.607 61.9755L748.609 111.976L786.911 134.087Z" fill="#EB9605"/>
<path d="M618.706 136.981L662.006 111.979L662.004 61.9788L618.702 36.9805L575.401 61.9821L575.403 111.982L618.706 136.981Z" fill="#EB9605"/>
<path d="M575.401 61.9821L618.702 36.9805L618.7 -13.0197L580.398 -35.1313C577.304 -36.9175 573.492 -36.9174 570.398 -35.1309L532.097 -13.0162L532.1 36.9838L575.401 61.9821Z" fill="#EB9605"/>
<path d="M488.799 61.9855L532.1 36.9838L532.097 -13.0162L493.796 -35.1279C490.702 -36.9142 486.89 -36.914 483.796 -35.1276L445.495 -13.0128L445.497 36.9872L488.799 61.9855Z" fill="#EB9605"/>
<path d="M440.501 134.101C443.595 135.887 447.407 135.887 450.501 134.1L488.801 111.986L488.799 61.9855L445.497 36.9872L402.197 61.9889L402.199 111.989L440.501 134.101Z" fill="#EB9605"/>
<path d="M402.197 61.9889L445.497 36.9872L445.495 -13.0128L407.193 -35.1247C404.099 -36.9109 400.287 -36.9107 397.193 -35.1243L358.893 -13.0096L358.895 36.9905L402.197 61.9889Z" fill="#EB9605"/>
<path d="M657.009 209.092C660.103 210.879 663.915 210.878 667.009 209.092L700.31 189.864C703.404 188.078 705.31 184.776 705.31 181.204L705.308 136.977L662.006 111.979L618.706 136.981L618.707 181.207C618.707 184.78 620.613 188.081 623.708 189.867L657.009 209.092Z" fill="#EB9605"/>
<path d="M960.121 284.081C963.216 285.867 967.028 285.867 970.121 284.081L1003.42 264.853C1006.52 263.067 1008.42 259.765 1008.42 256.193L1008.42 211.966L965.118 186.968L921.817 211.969L921.819 256.196C921.819 259.769 923.725 263.07 926.819 264.856L960.121 284.081Z" fill="#EB9605"/>
<path d="M1008.42 211.966L1051.72 186.964L1051.72 136.964L1008.42 111.966L965.116 136.968L965.118 186.968L1008.42 211.966Z" fill="#EB9605"/>
<path d="M1138.33 286.961L1181.63 261.96L1181.62 211.96L1138.32 186.961L1095.02 211.963L1095.02 256.189C1095.02 259.762 1096.93 263.063 1100.02 264.849L1138.33 286.961Z" fill="#EB9605"/>
<path d="M1181.63 361.96L1224.93 336.958L1224.93 286.958L1181.63 261.96L1138.33 286.961L1138.33 331.188C1138.33 334.76 1140.23 338.062 1143.33 339.848L1181.63 361.96Z" fill="#EB9605"/>
<path d="M1219.93 434.071C1223.03 435.858 1226.84 435.858 1229.93 434.071L1263.23 414.843C1266.33 413.057 1268.23 409.756 1268.23 406.183L1268.23 361.957L1224.93 336.958L1181.63 361.96L1181.63 406.186C1181.63 409.759 1183.54 413.06 1186.63 414.846L1219.93 434.071Z" fill="#EB9605"/>
<path d="M1436.44 509.064C1439.54 510.85 1443.35 510.85 1446.44 509.063L1479.74 489.835C1482.84 488.049 1484.74 484.748 1484.74 481.175L1484.74 442.722C1484.74 439.149 1482.84 435.848 1479.74 434.062L1441.44 411.95L1398.14 436.952L1398.14 481.178C1398.14 484.751 1400.05 488.052 1403.14 489.838L1436.44 509.064Z" fill="#EB9605"/>
<path d="M358.898 136.991L402.199 111.989L402.197 61.9889L358.895 36.9905L315.594 61.9922L315.596 111.992L358.898 136.991Z" fill="#EB9605"/>
<path d="M315.594 61.9922L358.895 36.9905L358.893 -13.0096L320.591 -35.1213C317.497 -36.9075 313.685 -36.9073 310.591 -35.1209L272.29 -13.0062L272.292 36.9939L315.594 61.9922Z" fill="#EB9605"/>
<path d="M228.991 61.9956L272.292 36.9939L272.29 -13.0062L233.988 -35.1179C230.894 -36.9041 227.082 -36.904 223.988 -35.1176L185.688 -13.0028L185.689 36.9972L228.991 61.9956Z" fill="#EB9605"/>
<path d="M272.295 136.994L315.596 111.992L315.594 61.9922L272.292 36.9939L228.991 61.9956L228.993 106.222C228.993 109.795 230.899 113.096 233.993 114.882L272.295 136.994Z" fill="#EB9605"/>
<path d="M527.103 134.097C530.197 135.884 534.009 135.883 537.103 134.097L575.403 111.982L575.401 61.9821L532.1 36.9838L488.799 61.9855L488.801 111.986L527.103 134.097Z" fill="#EB9605"/>
<path d="M137.389 59.1123C140.483 60.8985 144.295 60.8984 147.389 59.1119L185.689 36.9972L185.688 -13.0028L147.385 -35.1146C144.291 -36.9009 140.479 -36.9007 137.385 -35.1143L104.085 -15.8865C100.991 -14.1 99.085 -10.7987 99.0851 -7.22604L99.0866 31.227C99.0867 34.7997 100.993 38.1009 104.087 39.8871L137.389 59.1123Z" fill="#EB9605"/>
<path d="M310.599 209.106C313.693 210.892 317.505 210.892 320.599 209.105L353.9 189.878C356.994 188.091 358.9 184.79 358.9 181.217L358.898 136.991L315.596 111.992L272.295 136.994L272.297 181.221C272.297 184.793 274.203 188.094 277.297 189.881L310.599 209.106Z" fill="#EB9605"/>
<path d="M1137.32 135.229L1180.62 110.228L1182.62 113.692L1139.32 138.693L1137.32 135.229ZM1179.62 111.96L1179.62 61.9597L1183.62 61.9595L1183.62 111.96L1179.62 111.96ZM1180.62 63.6917L1137.32 38.6933L1139.32 35.2291L1182.62 60.2275L1180.62 63.6917ZM1139.32 38.6932L1096.02 63.6948L1094.02 60.2308L1137.32 35.2292L1139.32 38.6932ZM1097.02 61.9628L1097.02 111.963L1093.02 111.963L1093.02 61.9629L1097.02 61.9628ZM1096.02 110.231L1139.32 135.229L1137.32 138.693L1094.02 113.695L1096.02 110.231ZM1180.62 210.228L1223.92 185.226L1225.92 188.69L1182.62 213.692L1180.62 210.228ZM1222.92 186.958L1222.92 136.958L1226.92 136.958L1226.92 186.958L1222.92 186.958ZM1223.92 138.69L1180.62 113.692L1182.62 110.228L1225.92 135.226L1223.92 138.69ZM1140.32 136.961L1140.32 186.961L1136.32 186.961L1136.32 136.961L1140.32 136.961ZM1139.32 185.229L1182.62 210.227L1180.62 213.692L1137.32 188.693L1139.32 185.229ZM1180.62 60.2276L1223.92 35.2261L1225.92 38.6901L1182.62 63.6916L1180.62 60.2276ZM1223.92 135.226L1267.22 110.224L1269.22 113.688L1225.92 138.69L1223.92 135.226ZM1266.22 111.957L1266.22 61.9565L1270.22 61.9564L1270.22 111.956L1266.22 111.957ZM1267.22 63.6885L1223.92 38.6902L1225.92 35.226L1269.22 60.2244L1267.22 63.6885ZM1267.23 213.688L1223.92 188.69L1225.92 185.226L1269.23 210.224L1267.23 213.688ZM1267.23 210.224L1310.53 185.223L1312.53 188.687L1269.23 213.688L1267.23 210.224ZM1309.53 186.955L1309.53 136.955L1313.53 136.955L1313.53 186.955L1309.53 186.955ZM1310.53 138.687L1267.22 113.689L1269.22 110.224L1312.53 135.223L1310.53 138.687ZM1179.63 261.96L1179.62 211.96L1183.62 211.959L1183.63 261.96L1179.63 261.96ZM1223.93 288.69L1180.63 263.692L1182.63 260.227L1225.93 285.226L1223.93 288.69ZM1223.93 285.226L1267.23 260.224L1269.23 263.688L1225.93 288.69L1223.93 285.226ZM1266.23 261.956L1266.23 211.956L1270.23 211.956L1270.23 261.956L1266.23 261.956ZM1310.53 288.687L1267.23 263.688L1269.23 260.224L1312.53 285.223L1310.53 288.687ZM1310.53 285.223L1353.83 260.221L1355.83 263.685L1312.53 288.687L1310.53 285.223ZM1352.83 261.953L1352.83 211.953L1356.83 211.953L1356.83 261.953L1352.83 261.953ZM1353.83 213.685L1310.53 188.687L1312.53 185.223L1355.83 210.221L1353.83 213.685ZM1267.22 60.2244L1310.52 35.2228L1312.52 38.6869L1269.22 63.6885L1267.22 60.2244ZM1310.53 135.223L1353.83 110.221L1355.83 113.685L1312.53 138.687L1310.53 135.223ZM1352.83 111.953L1352.82 61.9533L1356.82 61.9532L1356.83 111.953L1352.83 111.953ZM1353.82 63.6853L1310.52 38.6869L1312.52 35.2228L1355.82 60.2211L1353.82 63.6853ZM1353.83 210.221L1397.13 185.22L1399.13 188.684L1355.83 213.685L1353.83 210.221ZM1396.13 186.952L1396.13 136.952L1400.13 136.951L1400.13 186.952L1396.13 186.952ZM1397.13 138.684L1353.83 113.685L1355.83 110.221L1399.13 135.219L1397.13 138.684ZM1007.41 60.234L1050.71 35.2324L1052.71 38.6964L1009.41 63.698L1007.41 60.234ZM1050.72 135.232L1094.02 110.231L1096.02 113.695L1052.72 138.696L1050.72 135.232ZM1094.02 63.6949L1050.71 38.6965L1052.71 35.2323L1096.02 60.2307L1094.02 63.6949ZM1010.41 61.9659L1010.42 111.966L1006.42 111.966L1006.41 61.9661L1010.41 61.9659ZM1009.42 110.234L1052.72 135.232L1050.72 138.696L1007.42 113.698L1009.42 110.234ZM1094.02 210.231L1137.32 185.229L1139.32 188.693L1096.02 213.695L1094.02 210.231ZM1053.72 136.964L1053.72 186.964L1049.72 186.964L1049.72 136.964L1053.72 136.964ZM920.812 60.2371L964.112 35.2356L966.112 38.6996L922.812 63.7012L920.812 60.2371ZM964.116 135.236L1007.42 110.234L1009.42 113.698L966.116 138.7L964.116 135.236ZM1007.41 63.6981L964.112 38.6997L966.112 35.2355L1009.41 60.2339L1007.41 63.6981ZM923.812 61.9691L923.814 111.969L919.814 111.969L919.812 61.9692L923.812 61.9691ZM922.814 110.237L966.116 135.235L964.116 138.7L920.814 113.701L922.814 110.237ZM834.209 60.2404L877.51 35.2387L879.51 38.7028L836.21 63.7044L834.209 60.2404ZM877.513 135.239L920.814 110.237L922.814 113.701L879.513 138.703L877.513 135.239ZM920.812 63.7012L877.51 38.7028L879.51 35.2387L922.812 60.2371L920.812 63.7012ZM837.21 61.9723L837.211 111.972L833.211 111.972L833.21 61.9724L837.21 61.9723ZM1222.93 336.958L1222.93 286.958L1226.93 286.958L1226.93 336.958L1222.93 336.958ZM1267.23 363.689L1223.93 338.69L1225.93 335.226L1269.23 360.224L1267.23 363.689ZM1309.53 336.955L1309.53 286.955L1313.53 286.955L1313.53 336.955L1309.53 336.955ZM1353.83 360.221L1397.14 335.22L1399.14 338.684L1355.83 363.685L1353.83 360.221ZM1396.14 336.952L1396.13 286.952L1400.13 286.952L1400.14 336.952L1396.14 336.952ZM1397.13 288.684L1353.83 263.685L1355.83 260.221L1399.13 285.22L1397.13 288.684ZM1397.13 285.22L1440.43 260.218L1442.43 263.682L1399.13 288.684L1397.13 285.22ZM1440.43 213.682L1397.13 188.684L1399.13 185.22L1442.43 210.218L1440.43 213.682ZM1397.14 435.22L1440.44 410.218L1442.44 413.682L1399.14 438.684L1397.14 435.22ZM1440.44 363.682L1397.14 338.684L1399.14 335.22L1442.44 360.218L1440.44 363.682ZM1353.82 60.2212L1397.12 35.2196L1399.12 38.6837L1355.82 63.6853L1353.82 60.2212ZM1397.13 135.22L1440.43 110.218L1442.43 113.682L1399.13 138.684L1397.13 135.22ZM1440.43 63.682L1397.12 38.6838L1399.12 35.2196L1442.43 60.2178L1440.43 63.682ZM1136.32 36.9613L1136.31 -13.0388L1140.31 -13.0389L1140.32 36.9611L1136.32 36.9613ZM1222.92 36.9581L1222.92 -13.042L1226.92 -13.0421L1226.92 36.958L1222.92 36.9581ZM1309.52 36.9549L1309.52 -13.045L1313.52 -13.0452L1313.52 36.9548L1309.52 36.9549ZM1396.12 36.9517L1396.12 -13.0484L1400.12 -13.0485L1400.12 36.9516L1396.12 36.9517ZM1053.71 -13.0357L1053.71 36.9643L1049.71 36.9645L1049.71 -13.0355L1053.71 -13.0357ZM967.11 -13.0325L967.112 36.9675L963.112 36.9677L963.11 -13.0324L967.11 -13.0325ZM880.508 -13.0293L880.51 36.9707L876.51 36.9708L876.508 -13.0292L880.508 -13.0293ZM793.905 -13.0261L793.907 36.974L789.907 36.9741L789.905 -13.0259L793.905 -13.0261ZM792.907 35.2419L836.209 60.2403L834.21 63.7045L790.907 38.7061L792.907 35.2419ZM747.607 60.2435L790.907 35.242L792.907 38.7061L749.607 63.7075L747.607 60.2435ZM707.303 -13.023L707.305 36.9771L703.305 36.9772L703.303 -13.0229L707.303 -13.023ZM706.304 35.2451L749.607 60.2434L747.607 63.7076L704.305 38.7093L706.304 35.2451ZM967.116 136.967L967.118 186.968L963.118 186.968L963.116 136.968L967.116 136.967ZM920.817 210.237L964.118 185.236L966.118 188.7L922.817 213.701L920.817 210.237ZM661.004 60.2468L704.304 35.2451L706.305 38.7092L663.004 63.7108L661.004 60.2468ZM620.7 -13.0198L620.702 36.9804L616.702 36.9806L616.7 -13.0196L620.7 -13.0198ZM619.702 35.2484L663.004 60.2467L661.004 63.7109L617.702 38.7126L619.702 35.2484ZM750.607 61.9754L750.609 111.976L746.609 111.976L746.607 61.9756L750.607 61.9754ZM664.004 61.9787L664.006 111.979L660.006 111.979L660.004 61.9789L664.004 61.9787ZM663.006 110.247L706.308 135.245L704.308 138.709L661.006 113.711L663.006 110.247ZM574.401 60.2501L617.702 35.2485L619.702 38.7125L576.402 63.7142L574.401 60.2501ZM617.706 135.249L661.006 110.247L663.006 113.711L619.706 138.713L617.706 135.249ZM577.401 61.9821L577.403 111.982L573.403 111.982L573.401 61.9822L577.401 61.9821ZM534.097 -13.0163L534.1 36.9837L530.1 36.9839L530.097 -13.0161L534.097 -13.0163ZM533.1 35.2517L576.401 60.2501L574.402 63.7142L531.1 38.7159L533.1 35.2517ZM487.799 60.2535L531.1 35.2518L533.1 38.7158L489.799 63.7176L487.799 60.2535ZM447.495 -13.0129L447.497 36.9871L443.497 36.9873L443.495 -13.0128L447.495 -13.0129ZM446.497 35.2551L489.799 60.2535L487.799 63.7176L444.497 38.7193L446.497 35.2551ZM490.799 61.9855L490.801 111.985L486.801 111.986L486.799 61.9856L490.799 61.9855ZM401.197 60.2569L444.497 35.2552L446.497 38.7192L403.197 63.7209L401.197 60.2569ZM404.197 61.9888L404.199 111.989L400.199 111.989L400.197 61.989L404.197 61.9888ZM360.893 -13.0096L360.895 36.9904L356.895 36.9906L356.893 -13.0095L360.893 -13.0096ZM359.895 35.2584L403.197 60.2568L401.197 63.721L357.895 38.7226L359.895 35.2584ZM966.118 185.236L1009.42 210.234L1007.42 213.698L964.118 188.7L966.118 185.236ZM1137.33 285.229L1180.63 260.228L1182.63 263.692L1139.33 288.693L1137.33 285.229ZM1180.63 360.228L1223.93 335.226L1225.93 338.69L1182.63 363.692L1180.63 360.228ZM314.594 60.2602L357.895 35.2585L359.895 38.7225L316.594 63.7242L314.594 60.2602ZM317.594 61.9921L317.596 111.992L313.596 111.992L313.594 61.9923L317.594 61.9921ZM316.596 110.26L359.898 135.258L357.898 138.723L314.596 113.724L316.596 110.26ZM274.29 -13.0062L274.292 36.9939L270.292 36.994L270.29 -13.0061L274.29 -13.0062ZM273.292 35.2618L316.594 60.2601L314.594 63.7243L271.292 38.726L273.292 35.2618ZM227.991 60.2635L271.292 35.2619L273.292 38.7259L229.991 63.7276L227.991 60.2635ZM187.688 -13.0029L187.689 36.9972L183.689 36.9973L183.688 -13.0027L187.688 -13.0029ZM271.295 135.262L314.596 110.26L316.596 113.724L273.295 138.726L271.295 135.262ZM1095.02 211.963L1097.02 208.499L1099.02 209.653L1099.02 211.963L1095.02 211.963ZM1051.72 186.964L1049.72 183.5L1051.72 182.346L1053.72 183.5L1051.72 186.964ZM878.513 136.971L880.513 133.507L882.513 134.661L882.513 136.971L878.513 136.971ZM835.211 111.972L833.211 108.508L835.211 107.354L837.211 108.508L835.211 111.972ZM1268.23 361.957L1264.23 361.957L1264.23 359.647L1266.23 358.492L1268.23 361.957ZM1311.53 336.955L1309.53 333.491L1311.53 332.336L1313.53 333.491L1311.53 336.955ZM1354.83 361.953L1356.83 358.489L1358.83 359.644L1358.83 361.953L1354.83 361.953ZM1441.43 261.95L1439.43 265.414L1437.43 264.26L1437.43 261.95L1441.43 261.95ZM1441.43 211.95L1437.43 211.95L1437.43 209.641L1439.43 208.486L1441.43 211.95ZM1398.14 436.952L1400.14 433.488L1402.14 434.642L1402.14 436.952L1398.14 436.952ZM1441.44 411.95L1439.44 415.414L1437.44 414.26L1437.44 411.95L1441.44 411.95ZM1441.44 361.95L1437.44 361.95L1437.44 359.641L1439.44 358.486L1441.44 361.95ZM1441.43 111.95L1439.43 115.414L1437.43 114.26L1437.43 111.95L1441.43 111.95ZM1441.43 61.9499L1437.43 61.9501L1437.43 59.6407L1439.43 58.4859L1441.43 61.9499ZM1138.31 -13.0388L1140.31 -9.57481L1138.31 -8.42003L1136.31 -9.57466L1138.31 -13.0388ZM1224.92 -13.0421L1226.92 -9.57803L1224.92 -8.42325L1222.92 -9.57787L1224.92 -13.0421ZM1311.52 -13.0451L1313.52 -9.58105L1311.52 -8.42629L1309.52 -9.58091L1311.52 -13.0451ZM1398.12 -13.0484L1400.12 -9.58439L1398.12 -8.42963L1396.12 -9.58425L1398.12 -13.0484ZM1051.71 -13.0356L1053.71 -9.57159L1051.71 -8.41681L1049.71 -9.57144L1051.71 -13.0356ZM965.11 -13.0325L967.11 -9.56844L965.11 -8.41365L963.11 -9.56829L965.11 -13.0325ZM878.508 -13.0292L880.508 -9.56521L878.508 -8.41043L876.508 -9.56507L878.508 -13.0292ZM791.905 -13.026L793.906 -9.56199L791.906 -8.40722L789.906 -9.56185L791.905 -13.026ZM705.303 -13.0229L707.303 -9.55889L705.303 -8.40413L703.303 -9.55874L705.303 -13.0229ZM921.817 211.969L923.817 208.505L925.817 209.66L925.817 211.969L921.817 211.969ZM618.7 -13.0197L620.7 -9.55568L618.7 -8.40091L616.7 -9.55552L618.7 -13.0197ZM748.609 111.976L746.609 108.512L748.609 107.357L750.609 108.511L748.609 111.976ZM705.308 136.977L701.308 136.977L701.308 134.668L703.308 133.513L705.308 136.977ZM618.706 136.981L620.705 133.516L622.705 134.671L622.706 136.98L618.706 136.981ZM575.403 111.982L573.403 108.518L575.403 107.363L577.403 108.518L575.403 111.982ZM532.097 -13.0162L534.098 -9.55216L532.098 -8.39738L530.098 -9.55201L532.097 -13.0162ZM445.495 -13.0128L447.495 -9.54882L445.495 -8.39404L443.495 -9.54867L445.495 -13.0128ZM488.801 111.986L486.801 108.522L488.801 107.367L490.801 108.521L488.801 111.986ZM402.199 111.989L400.199 108.525L402.198 107.37L404.199 108.525L402.199 111.989ZM358.893 -13.0096L360.893 -9.54554L358.893 -8.39076L356.893 -9.54538L358.893 -13.0096ZM1008.42 211.966L1004.42 211.966L1004.42 209.657L1006.42 208.502L1008.42 211.966ZM1138.33 286.961L1140.33 283.497L1142.33 284.652L1142.33 286.961L1138.33 286.961ZM1181.63 361.96L1183.63 358.495L1185.63 359.65L1185.63 361.959L1181.63 361.96ZM358.898 136.991L354.898 136.991L354.898 134.681L356.898 133.527L358.898 136.991ZM272.29 -13.0062L274.29 -9.54214L272.29 -8.38736L270.29 -9.54198L272.29 -13.0062ZM185.688 -13.0028L187.688 -9.53879L185.688 -8.38402L183.688 -9.53865L185.688 -13.0028ZM228.991 61.9956L230.991 58.5314L232.991 59.686L232.991 61.9954L228.991 61.9956ZM185.689 36.9972L183.689 33.5332L185.689 32.3784L187.689 33.5331L185.689 36.9972ZM272.295 136.994L274.295 133.53L276.295 134.684L276.295 136.994L272.295 136.994ZM277.297 189.881L275.297 193.345L277.297 189.881ZM320.599 209.105L322.599 212.569L320.599 209.105ZM310.599 209.106L308.599 212.57L310.599 209.106ZM1359.84 414.84L1361.84 411.376L1359.84 414.84ZM358.9 181.217L354.9 181.217L358.9 181.217ZM353.9 189.878L351.9 186.414L353.9 189.878ZM104.087 39.8871L102.087 43.3513L104.087 39.8871ZM147.385 -35.1146L149.385 -38.5788L147.385 -35.1146ZM137.385 -35.1143L135.385 -38.5783L137.385 -35.1143ZM537.103 134.097L539.103 137.561L537.103 134.097ZM527.103 134.097L525.103 137.561L527.103 134.097ZM233.988 -35.1179L231.988 -31.6538L233.988 -35.1179ZM223.988 -35.1176L221.988 -38.5816L223.988 -35.1176ZM1479.74 434.062L1477.74 437.526L1479.74 434.062ZM1436.44 509.064L1438.44 505.599L1436.44 509.064ZM1446.44 509.063L1448.44 512.527L1446.44 509.063ZM1403.14 489.838L1401.14 493.302L1403.14 489.838ZM1186.63 414.846L1188.63 411.382L1186.63 414.846ZM667.009 209.092L669.009 212.556L667.009 209.092ZM657.009 209.092L659.009 205.628L657.009 209.092ZM705.31 181.204L701.31 181.204L705.31 181.204ZM700.31 189.864L702.31 193.328L700.31 189.864ZM450.501 134.1L448.501 130.636L450.501 134.1ZM440.501 134.101L442.501 130.637L440.501 134.101ZM1349.82 -35.1599L1351.82 -31.6959L1349.82 -35.1599ZM1359.82 -35.1603L1361.82 -38.6244L1359.82 -35.1603ZM407.193 -35.1247L405.193 -31.6605L407.193 -35.1247ZM397.193 -35.1243L395.193 -38.5883L397.193 -35.1243ZM320.591 -35.1213L322.59 -38.5855L320.591 -35.1213ZM310.591 -35.1209L308.591 -38.5849L310.591 -35.1209ZM878.515 181.197L874.515 181.198L878.515 181.197ZM883.515 189.857L881.516 193.322L883.515 189.857ZM493.796 -35.1279L495.796 -38.5921L493.796 -35.1279ZM1219.93 434.071L1221.93 430.607L1219.93 434.071ZM1229.93 434.071L1227.93 430.607L1229.93 434.071ZM830.206 -35.1407L832.206 -31.6767L830.206 -35.1407ZM840.206 -35.1411L842.206 -38.6052L840.206 -35.1411ZM1268.23 406.183L1264.23 406.183L1268.23 406.183ZM1263.23 414.843L1265.23 418.308L1263.23 414.843ZM1479.74 284.062L1477.74 287.526L1479.74 284.062ZM147.389 59.1119L145.389 55.6479L147.389 59.1119ZM580.398 -35.1313L582.398 -38.5955L580.398 -35.1313ZM570.398 -35.1309L568.398 -38.595L570.398 -35.1309ZM1479.74 339.835L1477.74 336.371L1479.74 339.835ZM1143.33 339.848L1145.33 336.384L1143.33 339.848ZM1479.73 134.062L1481.73 130.597L1479.73 134.062ZM921.819 256.196L917.819 256.196L921.819 256.196ZM926.819 264.856L928.819 261.392L926.819 264.856ZM1436.42 -35.1631L1438.42 -31.6991L1436.42 -35.1631ZM1446.42 -35.1635L1448.42 -38.6277L1446.42 -35.1635ZM623.708 189.867L625.707 186.403L623.708 189.867ZM1003.41 -35.1471L1001.41 -38.6111L1003.41 -35.1471ZM1013.41 -35.1475L1015.41 -38.6117L1013.41 -35.1475ZM667 -35.1347L669 -38.5988L667 -35.1347ZM657 -35.1343L655 -38.5983L657 -35.1343ZM1100.01 -35.1506L1102.01 -38.6148L1100.01 -35.1506ZM1090.01 -35.1503L1092.01 -31.6862L1090.01 -35.1503ZM104.085 -15.8865L106.085 -12.4225L104.085 -15.8865ZM1095.02 256.189L1091.02 256.189L1095.02 256.189ZM1100.02 264.849L1098.02 268.313L1100.02 264.849ZM1479.73 189.835L1477.73 186.371L1479.73 189.835ZM1003.42 264.853L1005.42 268.317L1003.42 264.853ZM926.808 -35.1443L924.808 -31.6801L926.808 -35.1443ZM1479.74 489.835L1477.74 486.371L1479.74 489.835ZM743.603 -35.1376L745.603 -31.6736L743.603 -35.1376ZM753.603 -35.138L751.603 -31.6738L753.603 -35.138ZM1176.62 -35.1535L1174.61 -38.6175L1176.62 -35.1535ZM1186.62 -35.1539L1184.62 -31.6897L1186.62 -35.1539ZM233.993 114.882L235.993 111.418L233.993 114.882ZM796.911 134.087L798.911 137.551L798.911 137.551L796.911 134.087ZM786.911 134.087L788.911 130.623L786.911 134.087ZM970.121 284.081L972.122 287.545L970.121 284.081ZM960.121 284.081L958.122 287.545L960.121 284.081ZM1479.73 39.8352L1477.73 36.3712L1479.73 39.8352ZM1053.72 183.5L1097.02 208.499L1093.02 215.427L1049.72 190.429L1053.72 183.5ZM837.211 108.508L880.513 133.507L876.513 140.435L833.212 115.437L837.211 108.508ZM1266.23 358.492L1309.53 333.491L1313.53 340.419L1270.23 365.421L1266.23 358.492ZM1352.84 365.417L1309.53 340.419L1313.53 333.491L1356.83 358.489L1352.84 365.417ZM1437.43 261.95L1437.43 211.95L1445.43 211.95L1445.43 261.95L1437.43 261.95ZM1350.84 406.18L1350.83 361.953L1358.83 361.953L1358.84 406.18L1350.84 406.18ZM1396.14 440.416L1357.84 418.304L1361.84 411.376L1400.14 433.488L1396.14 440.416ZM1437.44 411.95L1437.44 361.95L1445.44 361.95L1445.44 411.95L1437.44 411.95ZM1437.43 111.95L1437.43 61.9501L1445.43 61.9498L1445.43 111.95L1437.43 111.95ZM1136.31 -16.5029L1174.61 -38.6175L1178.62 -31.6895L1140.31 -9.57481L1136.31 -16.5029ZM1222.92 -9.57787L1184.62 -31.6897L1188.61 -38.6181L1226.92 -16.5062L1222.92 -9.57787ZM1222.92 -16.5061L1261.22 -38.6206L1265.22 -31.6925L1226.92 -9.57803L1222.92 -16.5061ZM1309.52 -9.58091L1271.22 -31.6927L1275.22 -38.6211L1313.52 -16.5093L1309.52 -9.58091ZM1309.52 -16.5091L1347.82 -38.6239L1351.82 -31.6959L1313.52 -9.58105L1309.52 -16.5091ZM1396.12 -9.58425L1357.82 -31.6961L1361.82 -38.6244L1400.12 -16.5126L1396.12 -9.58425ZM1136.31 -9.57466L1098.01 -31.6865L1102.01 -38.6148L1140.31 -16.503L1136.31 -9.57466ZM1092.01 -31.6862L1053.71 -9.57159L1049.71 -16.4996L1088.01 -38.6143L1092.01 -31.6862ZM963.11 -16.4965L1001.41 -38.6111L1005.41 -31.6831L967.11 -9.56844L963.11 -16.4965ZM1049.71 -9.57144L1011.41 -31.6833L1015.41 -38.6117L1053.71 -16.4998L1049.71 -9.57144ZM876.508 -16.4933L914.808 -38.6079L918.808 -31.6799L880.508 -9.56521L876.508 -16.4933ZM963.11 -9.56829L924.808 -31.6801L928.808 -38.6084L967.11 -16.4966L963.11 -9.56829ZM1396.12 -16.5125L1434.42 -38.6271L1438.42 -31.6991L1400.12 -9.58439L1396.12 -16.5125ZM1439.43 58.4859L1477.73 36.3712L1481.73 43.2993L1443.43 65.414L1439.43 58.4859ZM1480.73 31.1749L1480.73 -7.27801L1488.73 -7.27831L1488.73 31.1746L1480.73 31.1749ZM1477.73 -12.4741L1444.42 -31.6993L1448.42 -38.6277L1481.73 -19.4025L1477.73 -12.4741ZM1439.43 208.486L1477.73 186.371L1481.73 193.299L1443.43 215.414L1439.43 208.486ZM1480.73 181.175L1480.73 142.722L1488.73 142.722L1488.73 181.175L1480.73 181.175ZM1477.73 137.526L1439.43 115.414L1443.43 108.486L1481.73 130.597L1477.73 137.526ZM1439.44 358.486L1477.74 336.371L1481.74 343.3L1443.44 365.414L1439.44 358.486ZM1480.74 331.175L1480.74 292.722L1488.74 292.722L1488.74 331.175L1480.74 331.175ZM1477.74 287.526L1439.43 265.414L1443.43 258.486L1481.74 280.598L1477.74 287.526ZM789.905 -16.49L828.206 -38.6047L832.206 -31.6767L793.906 -9.56199L789.905 -16.49ZM876.508 -9.56507L838.206 -31.6769L842.206 -38.6052L880.508 -16.4934L876.508 -9.56507ZM703.303 -16.487L741.603 -38.6016L745.603 -31.6736L707.303 -9.55889L703.303 -16.487ZM789.906 -9.56185L751.603 -31.6738L755.603 -38.6021L793.905 -16.4902L789.906 -9.56185ZM882.513 136.971L882.515 181.197L874.515 181.198L874.513 136.971L882.513 136.971ZM885.515 186.393L923.817 208.505L919.818 215.433L881.516 193.322L885.515 186.393ZM669 -38.5988L707.303 -16.4871L703.303 -9.55874L665.001 -31.6705L669 -38.5988ZM616.7 -16.4837L655 -38.5983L659.001 -31.6703L620.7 -9.55568L616.7 -16.4837ZM703.308 133.513L746.609 108.512L750.609 115.44L707.308 140.441L703.308 133.513ZM794.911 130.623L833.211 108.508L837.212 115.436L798.911 137.551L794.911 130.623ZM750.609 108.511L788.911 130.623L784.911 137.552L746.609 115.44L750.609 108.511ZM577.403 108.518L620.705 133.516L616.706 140.445L573.403 115.446L577.403 108.518ZM582.398 -38.5955L620.7 -16.4839L616.7 -9.55552L578.398 -31.6671L582.398 -38.5955ZM530.097 -16.4802L568.398 -38.595L572.398 -31.6669L534.098 -9.55216L530.097 -16.4802ZM495.796 -38.5921L534.097 -16.4804L530.098 -9.55201L491.796 -31.6638L495.796 -38.5921ZM443.495 -16.4769L481.796 -38.5916L485.796 -31.6635L447.495 -9.54882L443.495 -16.4769ZM448.501 130.636L486.801 108.522L490.801 115.45L452.501 137.564L448.501 130.636ZM404.199 108.525L442.501 130.637L438.501 137.565L400.199 115.453L404.199 108.525ZM409.193 -38.5888L447.495 -16.477L443.495 -9.54867L405.193 -31.6605L409.193 -38.5888ZM356.893 -16.4736L395.193 -38.5883L399.193 -31.6603L360.893 -9.54554L356.893 -16.4736ZM709.308 136.977L709.31 181.204L701.31 181.204L701.308 136.977L709.308 136.977ZM665.009 205.628L698.31 186.4L702.31 193.328L669.009 212.556L665.009 205.628ZM622.706 136.98L622.707 181.207L614.707 181.207L614.706 136.981L622.706 136.98ZM625.707 186.403L659.009 205.628L655.009 212.557L621.708 193.331L625.707 186.403ZM1012.42 211.966L1012.42 256.192L1004.42 256.193L1004.42 211.966L1012.42 211.966ZM925.817 211.969L925.819 256.196L917.819 256.196L917.817 211.969L925.817 211.969ZM968.121 280.617L1001.42 261.389L1005.42 268.317L972.122 287.545L968.121 280.617ZM928.819 261.392L962.121 280.617L958.122 287.545L924.82 268.32L928.819 261.392ZM1006.42 208.502L1049.72 183.5L1053.72 190.428L1010.42 215.43L1006.42 208.502ZM1099.02 211.963L1099.02 256.189L1091.02 256.189L1091.02 211.963L1099.02 211.963ZM1102.02 261.385L1140.33 283.497L1136.33 290.425L1098.02 268.313L1102.02 261.385ZM1134.33 331.188L1134.33 286.961L1142.33 286.961L1142.33 331.188L1134.33 331.188ZM1179.63 365.424L1141.33 343.312L1145.33 336.384L1183.63 358.495L1179.63 365.424ZM1264.23 406.183L1264.23 361.957L1272.23 361.956L1272.23 406.183L1264.23 406.183ZM1177.63 406.186L1177.63 361.96L1185.63 361.959L1185.63 406.186L1177.63 406.186ZM1217.93 437.536L1184.63 418.31L1188.63 411.382L1221.93 430.607L1217.93 437.536ZM1227.93 430.607L1261.23 411.379L1265.23 418.308L1231.93 437.535L1227.93 430.607ZM1394.14 481.178L1394.14 436.952L1402.14 436.952L1402.14 481.178L1394.14 481.178ZM1434.44 512.528L1401.14 493.302L1405.14 486.374L1438.44 505.599L1434.44 512.528ZM1444.44 505.599L1477.74 486.371L1481.74 493.3L1448.44 512.527L1444.44 505.599ZM1480.74 481.175L1480.74 442.722L1488.74 442.722L1488.74 481.175L1480.74 481.175ZM1477.74 437.526L1439.44 415.414L1443.44 408.486L1481.74 430.598L1477.74 437.526ZM356.898 133.527L400.199 108.525L404.199 115.453L360.898 140.455L356.898 133.527ZM322.59 -38.5855L360.893 -16.4737L356.893 -9.54538L318.591 -31.6571L322.59 -38.5855ZM270.29 -16.4702L308.591 -38.5849L312.591 -31.6569L274.29 -9.54214L270.29 -16.4702ZM235.988 -38.5821L274.29 -16.4703L270.29 -9.54198L231.988 -31.6538L235.988 -38.5821ZM183.687 -16.4668L221.988 -38.5816L225.988 -31.6535L187.688 -9.53879L183.687 -16.4668ZM187.689 33.5331L230.991 58.5314L226.992 65.4597L183.69 40.4614L187.689 33.5331ZM232.991 61.9954L232.993 106.222L224.993 106.222L224.991 61.9957L232.991 61.9954ZM235.993 111.418L274.295 133.53L270.295 140.458L231.993 118.346L235.993 111.418ZM535.103 130.633L573.403 108.518L577.403 115.446L539.103 137.561L535.103 130.633ZM490.801 108.521L529.103 130.633L525.103 137.561L486.801 115.45L490.801 108.521ZM149.385 -38.5788L187.687 -16.467L183.688 -9.53865L145.386 -31.6505L149.385 -38.5788ZM102.085 -19.3505L135.385 -38.5783L139.386 -31.6502L106.085 -12.4225L102.085 -19.3505ZM145.389 55.6479L183.689 33.5332L187.69 40.4613L149.389 62.576L145.389 55.6479ZM103.085 -7.22619L103.087 31.2269L95.0866 31.2272L95.0851 -7.22589L103.085 -7.22619ZM106.087 36.4229L139.389 55.6481L135.389 62.5765L102.087 43.3513L106.087 36.4229ZM362.898 136.99L362.9 181.217L354.9 181.217L354.898 136.991L362.898 136.99ZM318.599 205.641L351.9 186.414L355.9 193.342L322.599 212.569L318.599 205.641ZM276.295 136.994L276.297 181.22L268.297 181.221L268.295 136.994L276.295 136.994ZM279.297 186.416L312.599 205.642L308.599 212.57L275.297 193.345L279.297 186.416ZM276.297 181.22C276.297 183.364 277.441 185.345 279.297 186.416L275.297 193.345C270.966 190.844 268.297 186.222 268.297 181.221L276.297 181.22ZM322.599 212.569C318.268 215.07 312.931 215.071 308.599 212.57L312.599 205.642C314.455 206.713 316.743 206.713 318.599 205.641L322.599 212.569ZM1358.84 406.18C1358.84 408.323 1359.98 410.304 1361.84 411.376L1357.84 418.304C1353.51 415.803 1350.84 411.182 1350.84 406.18L1358.84 406.18ZM362.9 181.217C362.9 186.219 360.232 190.841 355.9 193.342L351.9 186.414C353.756 185.342 354.9 183.361 354.9 181.217L362.9 181.217ZM103.087 31.2269C103.087 33.3705 104.23 35.3512 106.087 36.4229L102.087 43.3513C97.7553 40.8506 95.0868 36.2289 95.0866 31.2272L103.087 31.2269ZM145.386 -31.6505C143.529 -32.7222 141.242 -32.7221 139.386 -31.6502L135.385 -38.5783C139.717 -41.0793 145.054 -41.0795 149.385 -38.5788L145.386 -31.6505ZM539.103 137.561C534.772 140.062 529.435 140.062 525.103 137.561L529.103 130.633C530.96 131.705 533.247 131.705 535.103 130.633L539.103 137.561ZM231.988 -31.6538C230.132 -32.7255 227.845 -32.7254 225.988 -31.6535L221.988 -38.5816C226.319 -41.0826 231.656 -41.0828 235.988 -38.5821L231.988 -31.6538ZM1480.74 442.722C1480.74 440.579 1479.6 438.598 1477.74 437.526L1481.74 430.598C1486.07 433.098 1488.74 437.72 1488.74 442.722L1480.74 442.722ZM1438.44 505.599C1440.3 506.671 1442.59 506.671 1444.44 505.599L1448.44 512.527C1444.11 515.028 1438.77 515.028 1434.44 512.528L1438.44 505.599ZM1402.14 481.178C1402.14 483.322 1403.28 485.302 1405.14 486.374L1401.14 493.302C1396.81 490.802 1394.14 486.18 1394.14 481.178L1402.14 481.178ZM1185.63 406.186C1185.63 408.33 1186.78 410.31 1188.63 411.382L1184.63 418.31C1180.3 415.81 1177.63 411.188 1177.63 406.186L1185.63 406.186ZM669.009 212.556C664.678 215.057 659.341 215.057 655.009 212.557L659.009 205.628C660.866 206.7 663.153 206.7 665.009 205.628L669.009 212.556ZM709.31 181.204C709.31 186.205 706.642 190.827 702.31 193.328L698.31 186.4C700.166 185.328 701.31 183.347 701.31 181.204L709.31 181.204ZM1261.22 -38.6206C1265.55 -41.1216 1270.89 -41.1218 1275.22 -38.6211L1271.22 -31.6927C1269.36 -32.7645 1267.07 -32.7644 1265.22 -31.6925L1261.22 -38.6206ZM452.501 137.564C448.169 140.065 442.832 140.066 438.501 137.565L442.501 130.637C444.357 131.708 446.644 131.708 448.501 130.636L452.501 137.564ZM1347.82 -38.6239C1352.15 -41.1249 1357.49 -41.1251 1361.82 -38.6244L1357.82 -31.6961C1355.96 -32.7678 1353.68 -32.7677 1351.82 -31.6959L1347.82 -38.6239ZM405.193 -31.6605C403.337 -32.7322 401.05 -32.7321 399.193 -31.6603L395.193 -38.5883C399.525 -41.0893 404.861 -41.0895 409.193 -38.5888L405.193 -31.6605ZM318.591 -31.6571C316.734 -32.7288 314.447 -32.7287 312.591 -31.6569L308.591 -38.5849C312.922 -41.0859 318.259 -41.0861 322.59 -38.5855L318.591 -31.6571ZM882.515 181.197C882.515 183.341 883.659 185.322 885.515 186.393L881.516 193.322C877.184 190.821 874.515 186.199 874.515 181.198L882.515 181.197ZM491.796 -31.6638C489.939 -32.7355 487.652 -32.7354 485.796 -31.6635L481.796 -38.5916C486.127 -41.0926 491.464 -41.0928 495.796 -38.5921L491.796 -31.6638ZM1221.93 430.607C1223.79 431.679 1226.08 431.679 1227.93 430.607L1231.93 437.535C1227.6 440.036 1222.27 440.036 1217.93 437.536L1221.93 430.607ZM828.206 -38.6047C832.537 -41.1057 837.874 -41.1059 842.206 -38.6052L838.206 -31.6769C836.35 -32.7486 834.062 -32.7485 832.206 -31.6767L828.206 -38.6047ZM1272.23 406.183C1272.23 411.185 1269.57 415.806 1265.23 418.308L1261.23 411.379C1263.09 410.308 1264.23 408.327 1264.23 406.183L1272.23 406.183ZM1480.74 292.722C1480.74 290.578 1479.59 288.598 1477.74 287.526L1481.74 280.598C1486.07 283.098 1488.74 287.72 1488.74 292.722L1480.74 292.722ZM149.389 62.576C145.057 65.077 139.721 65.0771 135.389 62.5765L139.389 55.6481C141.245 56.7198 143.532 56.7198 145.389 55.6479L149.389 62.576ZM578.398 -31.6671C576.542 -32.7388 574.255 -32.7388 572.398 -31.6669L568.398 -38.595C572.729 -41.096 578.066 -41.0962 582.398 -38.5955L578.398 -31.6671ZM1477.74 336.371C1479.59 335.3 1480.74 333.319 1480.74 331.175L1488.74 331.175C1488.74 336.177 1486.07 340.799 1481.74 343.3L1477.74 336.371ZM1142.33 331.188C1142.33 333.331 1143.47 335.312 1145.33 336.384L1141.33 343.312C1137 340.811 1134.33 336.19 1134.33 331.188L1142.33 331.188ZM1480.73 142.722C1480.73 140.578 1479.59 138.598 1477.73 137.526L1481.73 130.597C1486.06 133.098 1488.73 137.72 1488.73 142.722L1480.73 142.722ZM925.819 256.196C925.819 258.339 926.963 260.32 928.819 261.392L924.82 268.32C920.488 265.819 917.819 261.198 917.819 256.196L925.819 256.196ZM1434.42 -38.6271C1438.75 -41.1281 1444.09 -41.1283 1448.42 -38.6277L1444.42 -31.6993C1442.57 -32.771 1440.28 -32.7709 1438.42 -31.6991L1434.42 -38.6271ZM622.707 181.207C622.707 183.351 623.851 185.331 625.707 186.403L621.708 193.331C617.376 190.831 614.707 186.209 614.707 181.207L622.707 181.207ZM1001.41 -38.6111C1005.74 -41.1122 1011.08 -41.1124 1015.41 -38.6117L1011.41 -31.6833C1009.55 -32.755 1007.27 -32.755 1005.41 -31.6831L1001.41 -38.6111ZM665.001 -31.6705C663.144 -32.7422 660.857 -32.7421 659.001 -31.6703L655 -38.5983C659.332 -41.0993 664.669 -41.0995 669 -38.5988L665.001 -31.6705ZM1098.01 -31.6865C1096.16 -32.7582 1093.87 -32.7581 1092.01 -31.6862L1088.01 -38.6143C1092.34 -41.1153 1097.68 -41.1155 1102.01 -38.6148L1098.01 -31.6865ZM106.085 -12.4225C104.229 -11.3506 103.085 -9.36978 103.085 -7.22619L95.0851 -7.22589C95.085 -12.2276 97.7532 -16.8495 102.085 -19.3505L106.085 -12.4225ZM1099.02 256.189C1099.02 258.333 1100.17 260.313 1102.02 261.385L1098.02 268.313C1093.69 265.813 1091.02 261.191 1091.02 256.189L1099.02 256.189ZM1477.73 186.371C1479.59 185.299 1480.73 183.318 1480.73 181.175L1488.73 181.175C1488.73 186.176 1486.06 190.798 1481.73 193.299L1477.73 186.371ZM1012.42 256.192C1012.42 261.194 1009.75 265.816 1005.42 268.317L1001.42 261.389C1003.28 260.317 1004.42 258.336 1004.42 256.193L1012.42 256.192ZM914.808 -38.6079C919.14 -41.109 924.476 -41.1091 928.808 -38.6084L924.808 -31.6801C922.952 -32.7518 920.665 -32.7517 918.808 -31.6799L914.808 -38.6079ZM1477.74 486.371C1479.6 485.3 1480.74 483.319 1480.74 481.175L1488.74 481.175C1488.74 486.177 1486.08 490.798 1481.74 493.3L1477.74 486.371ZM741.603 -38.6016C745.935 -41.1026 751.271 -41.1028 755.603 -38.6021L751.603 -31.6738C749.747 -32.7455 747.46 -32.7454 745.603 -31.6736L741.603 -38.6016ZM1174.61 -38.6175C1178.95 -41.1186 1184.28 -41.1188 1188.61 -38.6181L1184.62 -31.6897C1182.76 -32.7614 1180.47 -32.7613 1178.62 -31.6895L1174.61 -38.6175ZM232.993 106.222C232.993 108.366 234.137 110.346 235.993 111.418L231.993 118.346C227.662 115.846 224.993 111.224 224.993 106.222L232.993 106.222ZM798.911 137.551C794.58 140.052 789.243 140.052 784.911 137.552L788.911 130.623C790.767 131.695 793.054 131.695 794.911 130.623L798.911 137.551ZM972.122 287.545C967.79 290.046 962.453 290.046 958.122 287.545L962.121 280.617C963.978 281.689 966.265 281.689 968.121 280.617L972.122 287.545ZM1477.73 36.3712C1479.58 35.2994 1480.73 33.3185 1480.73 31.1749L1488.73 31.1746C1488.73 36.1764 1486.06 40.7983 1481.73 43.2993L1477.73 36.3712ZM1480.73 -7.27801C1480.73 -9.42162 1479.58 -11.4024 1477.73 -12.4741L1481.73 -19.4025C1486.06 -16.9018 1488.73 -12.2801 1488.73 -7.27831L1480.73 -7.27801Z" fill="#D7722C" mask="url(#path-1-inside-1_0_1)"/>
</g>
<defs>
<clipPath id="clip0_0_1">
<rect width="1440" height="1024" fill="white"/>
</clipPath>
</defs>
</svg>
